<svg width="64" height="64" version="1.1" viewBox="0 0 64 64" xmlns="http://www.w3.org/2000/svg">
 <g transform="translate(0 -1058.5)">
  <ellipse transform="rotate(-15)" cx="-251.33" cy="1061.6" rx="27" ry="27" fill="#f2660c"/>
  <circle cx="32" cy="1090.5" r="10" fill="#f2660c"/>
  <circle cx="32" cy="1090.5" r="5" fill="#f2660c"/>
  <rect x="44" y="1089.5" width="9" height="10" ry=".99995" fill="#f2660c"/>
  <path transform="translate(0 1058.5)" d="m43 39c-0.55397 0-1 0.44603-1 1v16c0 1.662 1.338 3 3 3h7c1.662 0 3-1.338 3-3v-16c0-0.55397-0.44603-1-1-1h-11z" fill="#f2660c"/>
  <g fill="#f2660c">
   <rect x="45" y="1100.5" width="7" height="1" ry=".5"/>
   <rect x="46" y="1102.5" width="5" height=".99995" ry=".45312"/>
   <rect x="47" y="1104.5" width="3" height="1" ry=".45312"/>
  </g>
  <g fill="#f2660c">
   <rect x="46" y="1091.5" width="1" height="5"/>
   <rect x="50" y="1091.5" width="1" height="5"/>
   <rect x="48" y="1093.5" width="1" height="3"/>
  </g>
 </g>
</svg>
