<svg width="64" height="64" version="1.1" xmlns="http://www.w3.org/2000/svg" xmlns:xlink="http://www.w3.org/1999/xlink">
 <path d="m12 30v-21c0-1.662 1.338-3 3-3h34c1.662 0 3 1.338 3 3v21z" fill="#f2660c" stroke-linecap="round" stroke-linejoin="round" stroke-width="8.6066" style="paint-order:stroke fill markers"/>
 <rect x="4" y="18" width="56" height="28" rx="6" ry="6" fill="#f2660c" stroke-linecap="round" stroke-linejoin="round" stroke-width="10.184" style="paint-order:stroke fill markers"/>
 <rect x="9" y="30" width="46" height="4" rx="2" ry="2" fill="#f2660c" opacity=".35" stroke-linecap="round" stroke-linejoin="round" stroke-width="3.4884" style="paint-order:stroke fill markers"/>
 <path d="m12 34v21c0 1.662 1.338 3 3 3h34c1.662 0 3-1.338 3-3v-21z" fill="#f2660c" stroke-linecap="round" stroke-linejoin="round" stroke-width="8.6066" style="paint-order:stroke fill markers"/>
 <rect x="8" y="22" width="3" height="3" rx="3" ry="3" fill="#f2660c" stroke-linecap="round" stroke-linejoin="round" stroke-width="10" style="paint-order:stroke fill markers"/>
 <circle cx="32" cy="34.5" r="12" fill="#f2660c" stroke-width=".75"/>
 <ellipse cx="32" cy="34.5" rx="9" ry="6" fill="#f2660c" opacity=".35" stroke-linecap="square" stroke-width="2.4299" style="paint-order:stroke fill markers"/>
 <path d="m32 29.5a5 5 0 0 0-5 5 5 5 0 0 0 5 5 5 5 0 0 0 5-5 5 5 0 0 0-5-5zm1.5 1.5a1.5 1.5 0 0 1 1.5 1.5 1.5 1.5 0 0 1-1.5 1.5 1.5 1.5 0 0 1-1.5-1.5 1.5 1.5 0 0 1 1.5-1.5z" fill="#f2660c" stroke-linecap="square" stroke-width="3.2927" style="paint-order:stroke fill markers"/>
</svg>
