<svg width="64" height="64" version="1.1" viewBox="0 0 16.933 16.933" xmlns="http://www.w3.org/2000/svg" xmlns:xlink="http://www.w3.org/1999/xlink">
 <defs>
  <clipPath id="c">
   <rect x="1.5875" y="1.5875" width="13.758" height="13.758" ry=".79367" fill="#f2660c"/>
  </clipPath>
  <linearGradient id="e" x1="388.57" x2="428.57" y1="528.79" y2="528.79" gradientTransform="matrix(1.3 0 0 1.3 -499.14 -648.92)" gradientUnits="userSpaceOnUse">
   <stop stop-color="#f2660c" offset="0"/>
   <stop stop-color="#f2660c" stop-opacity="0" offset="1"/>
  </linearGradient>
 </defs>
 <g transform="translate(-3.2916e-5 -3.2916e-5)">
  <path transform="matrix(.26458 0 0 .26458 3.2916e-5 3.2916e-5)" d="m51.502 6v6.5h6.498v-3.5c0-1.6619-1.3381-3-3-3h-3.498z" fill="#f2660c" stroke-width="204.07"/>
  <path transform="matrix(.26458 0 0 .26458 3.2916e-5 3.2916e-5)" d="m9 6c-1.6619 0-3 1.3381-3 3v46c0 1.6619 1.3381 3 3 3h46c1.6619 0 3-1.3381 3-3v-46c0-1.6619-1.3381-3-3-3h-46z" fill="#f2660c" stroke-width="204.07"/>
  <path transform="matrix(.26458 0 0 .26458 3.2916e-5 3.2916e-5)" d="m6 32v23c0 1.6619 1.3381 3 3 3h23v-26h-26z" fill="#f2660c" stroke-width="204.07"/>
  <path transform="matrix(.26458 0 0 .26458 3.2916e-5 3.2916e-5)" d="m6 51.502v3.498c0 1.6619 1.3381 3 3 3h3.5v-6.498h-6.5z" fill="#f2660c" stroke-width="204.07"/>
  <rect x="3.3072" y="13.626" width="1.7198" height="1.7198" ry="0" fill="#f2660c" stroke-width="53.991"/>
  <rect x="5.027" y="13.626" width="1.7198" height="1.7198" ry="0" fill="#f2660c" stroke-width="53.991"/>
  <rect x="6.7467" y="13.626" width="1.7198" height="1.7198" ry="0" fill="#f2660c" stroke-width="53.991"/>
  <rect x="8.4665" y="13.626" width="1.7198" height="1.7198" ry="0" fill="#f2660c" stroke-width="53.991"/>
  <rect x="10.186" y="13.626" width="1.7198" height="1.7198" ry="0" fill="#f2660c" stroke-width="53.991"/>
  <rect x="11.906" y="13.626" width="1.7198" height="1.7198" ry="0" fill="#f2660c" stroke-width="53.991"/>
  <path transform="matrix(.26458 0 0 .26458 3.2916e-5 3.2916e-5)" d="m51.502 51.502v6.498h3.498c1.6619 0 3-1.3381 3-3v-3.498h-6.498z" fill="#f2660c" stroke-width="204.07"/>
  <rect x="1.5875" y="11.906" width="1.7198" height="1.7198" ry="0" fill="#f2660c" stroke-width="53.991"/>
  <rect x="3.3072" y="11.906" width="1.7198" height="1.7198" ry="0" fill="#f2660c" stroke-width="53.991"/>
  <rect x="5.027" y="11.906" width="1.7198" height="1.7198" ry="0" fill="#f2660c" stroke-width="53.991"/>
  <rect x="6.7467" y="11.906" width="1.7198" height="1.7198" ry="0" fill="#f2660c" stroke-width="53.991"/>
  <rect x="8.4665" y="11.906" width="1.7198" height="1.7198" ry="0" fill="#f2660c" stroke-width="53.991"/>
  <rect x="10.186" y="11.906" width="1.7198" height="1.7198" ry="0" fill="#f2660c" stroke-width="53.991"/>
  <rect x="11.906" y="11.906" width="1.7198" height="1.7198" ry="0" fill="#f2660c" stroke-width="53.991"/>
  <rect x="13.626" y="11.906" width="1.7198" height="1.7198" ry="0" fill="#f2660c" stroke-width="53.991"/>
  <rect x="1.5875" y="10.186" width="1.7198" height="1.7198" ry="0" fill="#f2660c" stroke-width="53.991"/>
  <rect x="3.3072" y="10.186" width="1.7198" height="1.7198" ry="0" fill="#f2660c" stroke-width="53.991"/>
  <rect x="5.027" y="10.186" width="1.7198" height="1.7198" ry="0" fill="#f2660c" stroke-width="53.991"/>
  <rect x="6.7467" y="10.186" width="1.7198" height="1.7198" ry="0" fill="#f2660c" stroke-width="53.991"/>
  <rect x="8.4665" y="10.186" width="1.7198" height="1.7198" ry="0" fill="#f2660c" stroke-width="53.991"/>
  <rect x="10.186" y="10.186" width="1.7198" height="1.7198" ry="0" fill="#f2660c" stroke-width="53.991"/>
  <rect x="11.906" y="10.186" width="1.7198" height="1.7198" ry="0" fill="#f2660c" stroke-width="53.991"/>
  <rect x="13.626" y="10.186" width="1.7198" height="1.7198" ry="0" fill="#f2660c" stroke-width="53.991"/>
  <rect x="1.5875" y="8.4665" width="1.7198" height="1.7198" ry="0" fill="#f2660c" stroke-width="53.991"/>
  <rect x="3.3072" y="8.4665" width="1.7198" height="1.7198" ry="0" fill="#f2660c" stroke-width="53.991"/>
  <rect x="5.027" y="8.4665" width="1.7198" height="1.7198" ry="0" fill="#f2660c" stroke-width="53.991"/>
  <rect x="6.7467" y="8.4665" width="1.7198" height="1.7198" ry="0" fill="#f2660c" stroke-width="53.991"/>
  <rect x="8.4665" y="8.4665" width="1.7198" height="1.7198" ry="0" fill="#f2660c" stroke-width="53.991"/>
  <rect x="10.186" y="8.4665" width="1.7198" height="1.7198" ry="0" fill="#f2660c" stroke-width="53.991"/>
  <rect x="11.906" y="8.4665" width="1.7198" height="1.7198" ry="0" fill="#f2660c" stroke-width="53.991"/>
  <rect x="13.626" y="8.4665" width="1.7198" height="1.7198" ry="0" fill="#f2660c" stroke-width="53.991"/>
  <path transform="matrix(.26458 0 0 .26458 3.2916e-5 3.2916e-5)" d="m9 6c-1.6619 0-3 1.3381-3 3v23h26v-26h-23z" fill="#f2660c" stroke-width="204.07"/>
  <rect x="1.5875" y="6.7467" width="1.7198" height="1.7198" ry="0" fill="#f2660c" stroke-width="53.991"/>
  <rect x="3.3072" y="6.7467" width="1.7198" height="1.7198" ry="0" fill="#f2660c" stroke-width="53.991"/>
  <rect x="5.027" y="6.7467" width="1.7198" height="1.7198" ry="0" fill="#f2660c" stroke-width="53.991"/>
  <rect x="6.7467" y="6.7467" width="1.7198" height="1.7198" ry="0" fill="#f2660c" stroke-width="53.991"/>
  <rect x="8.4665" y="6.7467" width="1.7198" height="1.7198" ry="0" fill="#f2660c" stroke-width="53.991"/>
  <rect x="10.186" y="6.7467" width="1.7198" height="1.7198" ry="0" fill="#f2660c" stroke-width="53.991"/>
  <rect x="11.906" y="6.7467" width="1.7198" height="1.7198" ry="0" fill="#f2660c" stroke-width="53.991"/>
  <rect x="13.626" y="6.7467" width="1.7198" height="1.7198" ry="0" fill="#f2660c" stroke-width="53.991"/>
  <rect x="1.5875" y="5.027" width="1.7198" height="1.7198" ry="0" fill="#f2660c" stroke-width="53.991"/>
  <rect x="3.3072" y="5.027" width="1.7198" height="1.7198" ry="0" fill="#f2660c" stroke-width="53.991"/>
  <rect x="5.027" y="5.027" width="1.7198" height="1.7198" ry="0" fill="#f2660c" stroke-width="53.991"/>
  <rect x="6.7467" y="5.027" width="1.7198" height="1.7198" ry="0" fill="#f2660c" stroke-width="53.991"/>
  <rect x="8.4665" y="5.027" width="1.7198" height="1.7198" ry="0" fill="#f2660c" stroke-width="53.991"/>
  <rect x="10.186" y="5.027" width="1.7198" height="1.7198" ry="0" fill="#f2660c" stroke-width="53.991"/>
  <rect x="11.906" y="5.027" width="1.7198" height="1.7198" ry="0" fill="#f2660c" stroke-width="53.991"/>
  <rect x="13.626" y="5.027" width="1.7198" height="1.7198" ry="0" fill="#f2660c" stroke-width="53.991"/>
  <rect x="1.5875" y="3.3072" width="1.7198" height="1.7198" ry="0" fill="#f2660c" stroke-width="53.991"/>
  <rect x="3.3072" y="3.3072" width="1.7198" height="1.7198" ry="0" fill="#f2660c" stroke-width="53.991"/>
  <rect x="5.027" y="3.3072" width="1.7198" height="1.7198" ry="0" fill="#f2660c" stroke-width="53.991"/>
  <rect x="6.7467" y="3.3072" width="1.7198" height="1.7198" ry="0" fill="#f2660c" stroke-width="53.991"/>
  <rect x="8.4665" y="3.3072" width="1.7198" height="1.7198" ry="0" fill="#f2660c" stroke-width="53.991"/>
  <rect x="10.186" y="3.3072" width="1.7198" height="1.7198" ry="0" fill="#f2660c" stroke-width="53.991"/>
  <rect x="11.906" y="3.3072" width="1.7198" height="1.7198" ry="0" fill="#f2660c" stroke-width="53.991"/>
  <rect x="13.626" y="3.3072" width="1.7198" height="1.7198" ry="0" fill="#f2660c" stroke-width="53.991"/>
  <path transform="matrix(.26458 0 0 .26458 3.2916e-5 3.2916e-5)" d="m9 6c-1.6619 0-3 1.3381-3 3v3.5h6.5v-6.5h-3.5z" fill="#f2660c" stroke-width="204.07"/>
  <rect x="3.3072" y="1.5875" width="1.7198" height="1.7198" ry="0" fill="#f2660c" stroke-width="53.991"/>
  <rect x="5.027" y="1.5875" width="1.7198" height="1.7198" ry="0" fill="#f2660c" stroke-width="53.991"/>
  <rect x="6.7467" y="1.5875" width="1.7198" height="1.7198" ry="0" fill="#f2660c" stroke-width="53.991"/>
  <rect x="8.4665" y="1.5875" width="1.7198" height="1.7198" ry="0" fill="#f2660c" stroke-width="53.991"/>
  <rect x="10.186" y="1.5875" width="1.7198" height="1.7198" ry="0" fill="#f2660c" stroke-width="53.991"/>
  <rect x="11.906" y="1.5875" width="1.7198" height="1.7198" ry="0" fill="#f2660c" stroke-width="53.991"/>
  <path transform="matrix(.26458 0 0 .26458 3.2916e-5 3.2916e-5)" d="m25.508 18.98-12.998.013672-.011719 13.004-6.498.003906v22.998c0 1.6619 1.3381 3 3 3h46c1.6619 0 3-1.3381 3-3v-29.5l-6.5039-.005859v-6.4961h-6.4961v13.002h-6.5059l.001953-6.5137-12.996.011719.007812-6.5176z" fill="url(#e)" stroke-width="204.07"/>
  <path transform="matrix(.26458 0 0 .26458 3.2916e-5 3.2916e-5)" d="m8.9609 6.0039c-1.6432.02134-2.9609 1.3476-2.9609 2.9961v23.004l6.498-.005859v-6.4922l-.001953-6.5039 6.5.037109 6.5059-.042968-.009765 6.5039 12.996-.003906.003907 6.5059 6.5059-.005859.003906-12.988 6.498-.011718-.005859 6.5039h6.5039v-16.52c-.010643-1.6392-1.3224-2.9553-2.959-2.9766h-46.078z" fill="#f2660c" fill-opacity=".87006" stroke-width="204.07"/>
 </g>
 <rect x="1.5875" y="1.5875" width="13.758" height="13.758" clip-path="url(#c)" fill="none"/>
 <rect x="1.5875" y="1.5875" width="13.758" height="13.758" fill="none"/>
</svg>
