<svg width="64" height="64" version="1.1" xmlns="http://www.w3.org/2000/svg">
 <circle cx="32" cy="32" r="27" fill="#f2660c" fill-rule="evenodd" style="paint-order:stroke fill markers"/>
 <circle cx="32" cy="32" r="23" fill="#f2660c" fill-rule="evenodd" opacity=".5" style="paint-order:stroke fill markers"/>
 <g transform="translate(.30844 2.2191)">
  <g stroke-linecap="round" stroke-linejoin="bevel" stroke-width="2">
   <rect x="15.692" y="31.281" width="4" height="9" fill="#f2660c"/>
   <rect x="19.692" y="19.281" width="4" height="21" fill="#f2660c"/>
   <rect x="23.692" y="27.281" width="4" height="13" fill="#f2660c"/>
   <rect x="27.692" y="25.281" width="4" height="15" fill="#f2660c"/>
   <rect x="31.692" y="22.281" width="4" height="18" fill="#f2660c"/>
   <rect x="35.692" y="27.281" width="4" height="13" fill="#f2660c"/>
   <rect x="39.692" y="19.281" width="4" height="21" fill="#f2660c"/>
   <rect x="43.692" y="23.281" width="4" height="17" fill="#f2660c"/>
  </g>
  <path d="m15.692 40.281v-3c2 0 2-3 4-3s1.5 4 4 4 2-4 4-4 2-4 4-4 2 4 4 4 2-2 4-2 2-5 4-5 2 7 4 7v6z" fill="#f2660c" fill-rule="evenodd"/>
 </g>
</svg>
