<svg width="64" height="64" version="1.1" xmlns="http://www.w3.org/2000/svg" xmlns:xlink="http://www.w3.org/1999/xlink">
 <defs>
  <linearGradient id="b" x1="37.648" x2="60" y1="14" y2="14" gradientUnits="userSpaceOnUse">
   <stop offset="0"/>
   <stop stop-opacity="0" offset="1"/>
  </linearGradient>
 </defs>
 <rect transform="matrix(0 -1 -1 0 0 0)" x="-59" y="-60" width="18" height="56" rx="2.5" ry="2.5" fill="#f2660c"/>
 <path d="m24 47-4 6m-2-6-4 6m-2-6-4 6m22-6-4 6" fill="none" opacity=".5" stroke="#f2660c" stroke-linecap="round" stroke-width="3"/>
 <circle cx="40.5" cy="46.5" r="2.5" fill="#f2660c"/>
 <circle cx="47.5" cy="46.5" r="2.5" fill="#f2660c"/>
 <circle cx="54.5" cy="46.5" r="2.5" fill="#f2660c"/>
 <rect transform="matrix(0 -1 -1 0 0 0)" x="-41" y="-60" width="18" height="56" rx="2.5" ry="2.5" fill="#f2660c"/>
 <path d="m24 29-4 6m-2-6-4 6m-2-6-4 6m22-6-4 6" fill="none" opacity=".5" stroke="#f2660c" stroke-linecap="round" stroke-width="3"/>
 <circle cx="40.5" cy="28.5" r="2.5" fill="#f2660c"/>
 <circle cx="47.5" cy="28.5" r="2.5" fill="#f2660c"/>
 <circle cx="54.5" cy="28.5" r="2.5" fill="#f2660c"/>
 <rect transform="matrix(0 -1 -1 0 0 0)" x="-23" y="-60" width="18" height="56" rx="2.5" ry="2.5" fill="#f2660c"/>
 <path d="m24 11-4 6m-2-6-4 6m-2-6-4 6m22-6-4 6" fill="none" opacity=".5" stroke="#f2660c" stroke-linecap="round" stroke-width="3"/>
 <circle cx="39.5" cy="10.5" r="2.5" fill="#f2660c"/>
 <circle cx="47.5" cy="10.5" r="2.5" fill="#f2660c"/>
 <circle cx="54.5" cy="10.5" r="2.5" fill="#f2660c"/>
 <path d="M48.482 5a31.16 31.16 0 0 1-10.834 18H57.5c1.385 0 2.5-1.115 2.5-2.5v-13C60 6.115 58.885 5 57.5 5h-9.018z" fill="url(#b)" opacity=".25"/>
 <rect transform="matrix(0 -1 -1 0 0 0)" x="-23" y="-60" width="18" height="56" rx="2.5" ry="2.5" fill="#f2660c"/>
 <path d="m24 11-4 6m-2-6-4 6m-2-6-4 6m22-6-4 6" fill="none" opacity=".5" stroke="#f2660c" stroke-linecap="round" stroke-width="3"/>
 <circle cx="39.5" cy="10.5" r="2.5" fill="#f2660c"/>
 <circle cx="47.5" cy="10.5" r="2.5" fill="#f2660c"/>
 <circle cx="54.5" cy="10.5" r="2.5" fill="#f2660c"/>
</svg>
