<svg width="64" height="64" version="1" xmlns="http://www.w3.org/2000/svg">
 <path d="m12 30v-21c0-1.662 1.338-3 3-3h34c1.662 0 3 1.338 3 3v21z" fill="#261a15" stroke-linecap="round" stroke-linejoin="round" stroke-width="8.6066" style="paint-order:stroke fill markers"/>
 <rect x="4" y="18" width="56" height="28" rx="6" ry="6" fill="#261a15" stroke-linecap="round" stroke-linejoin="round" stroke-width="10.184" style="paint-order:stroke fill markers"/>
 <rect x="9" y="30" width="46" height="4" rx="2" ry="2" fill="#261a15" opacity=".35" stroke-linecap="round" stroke-linejoin="round" stroke-width="3.4884" style="paint-order:stroke fill markers"/>
 <path d="m12 34v21c0 1.662 1.338 3 3 3h34c1.662 0 3-1.338 3-3v-21z" fill="#261a15" stroke-linecap="round" stroke-linejoin="round" stroke-width="8.6066" style="paint-order:stroke fill markers"/>
 <rect x="8" y="22" width="3" height="3" rx="3" ry="3" fill="#261a15" stroke-linecap="round" stroke-linejoin="round" stroke-width="10" style="paint-order:stroke fill markers"/>
 <circle cx="39.5" cy="24.5" r="2.5" fill="#261a15"/>
 <circle cx="46.5" cy="24.5" r="2.5" fill="#261a15"/>
 <circle cx="53.5" cy="24.5" r="2.5" fill="#261a15"/>
</svg>
